<mxfile host="65bd71144e">
    <diagram id="UKpRKIIc7Zz5Gwapd9G1" name="PÃ¡gina-1">
        <mxGraphModel dx="1040" dy="576" grid="1" gridSize="10" guides="1" tooltips="1" connect="1" arrows="1" fold="1" page="1" pageScale="1" pageWidth="827" pageHeight="1169" math="0" shadow="0">
            <root>
                <mxCell id="0"/>
                <mxCell id="1" parent="0"/>
                <mxCell id="7" value="" style="group" vertex="1" connectable="0" parent="1">
                    <mxGeometry x="100" y="120" width="190" height="145" as="geometry"/>
                </mxCell>
                <mxCell id="5" value="Cod_Com" style="group;fillColor=#647687;fontColor=#ffffff;strokeColor=#314354;container=0;fontStyle=5;fontSize=20;" vertex="1" connectable="0" parent="7">
                    <mxGeometry y="56" width="190" height="45" as="geometry"/>
                </mxCell>
                <mxCell id="3" value="&lt;h1&gt;&lt;font style=&quot;font-size: 25px;&quot;&gt;Competencias&lt;/font&gt;&lt;/h1&gt;" style="rounded=0;whiteSpace=wrap;html=1;container=0;fillColor=#BDB9B9;strokeColor=#666666;fontColor=#333333;" vertex="1" parent="7">
                    <mxGeometry width="190" height="55" as="geometry"/>
                </mxCell>
                <mxCell id="6" value="Nom_Com" style="group;fillColor=#647687;fontColor=#ffffff;strokeColor=#314354;container=0;fontStyle=1;fontSize=20;" vertex="1" connectable="0" parent="7">
                    <mxGeometry y="100" width="190" height="45" as="geometry"/>
                </mxCell>
                <mxCell id="9" value="" style="group" vertex="1" connectable="0" parent="1">
                    <mxGeometry x="100" y="400" width="190" height="145" as="geometry"/>
                </mxCell>
                <mxCell id="10" value="Cod_Com1" style="group;fillColor=#647687;fontColor=#ffffff;strokeColor=#314354;container=0;fontStyle=5;fontSize=20;" vertex="1" connectable="0" parent="9">
                    <mxGeometry y="56" width="190" height="45" as="geometry"/>
                </mxCell>
                <mxCell id="11" value="&lt;h1&gt;&lt;font style=&quot;font-size: 25px;&quot;&gt;Com_Apr&lt;/font&gt;&lt;/h1&gt;" style="rounded=0;whiteSpace=wrap;html=1;container=0;fillColor=#BDB9B9;strokeColor=#666666;fontColor=#333333;" vertex="1" parent="9">
                    <mxGeometry width="190" height="55" as="geometry"/>
                </mxCell>
                <mxCell id="12" value="Doc_Ap1" style="group;fillColor=#647687;fontColor=#ffffff;strokeColor=#314354;container=0;fontStyle=5;fontSize=20;" vertex="1" connectable="0" parent="9">
                    <mxGeometry y="100" width="190" height="45" as="geometry"/>
                </mxCell>
                <mxCell id="22" value="" style="group" vertex="1" connectable="0" parent="1">
                    <mxGeometry x="570" y="120" width="190" height="370" as="geometry"/>
                </mxCell>
                <mxCell id="13" value="" style="group" vertex="1" connectable="0" parent="22">
                    <mxGeometry width="190" height="145" as="geometry"/>
                </mxCell>
                <mxCell id="14" value="Doc_Ap" style="group;fillColor=#647687;fontColor=#ffffff;strokeColor=#314354;container=0;fontStyle=5;fontSize=20;" vertex="1" connectable="0" parent="13">
                    <mxGeometry y="56" width="190" height="45" as="geometry"/>
                </mxCell>
                <mxCell id="15" value="&lt;h1&gt;&lt;font style=&quot;font-size: 25px;&quot;&gt;Aprendices&lt;/font&gt;&lt;/h1&gt;" style="rounded=0;whiteSpace=wrap;html=1;container=0;fillColor=#BDB9B9;strokeColor=#666666;fontColor=#333333;" vertex="1" parent="13">
                    <mxGeometry width="190" height="55" as="geometry"/>
                </mxCell>
                <mxCell id="16" value="Nom_Ap" style="group;fillColor=#647687;fontColor=#ffffff;strokeColor=#314354;container=0;fontStyle=1;fontSize=20;" vertex="1" connectable="0" parent="13">
                    <mxGeometry y="100" width="190" height="45" as="geometry"/>
                </mxCell>
                <mxCell id="17" value="Trim_Ap" style="group;fillColor=#647687;fontColor=#ffffff;strokeColor=#314354;container=0;fontStyle=1;fontSize=20;" vertex="1" connectable="0" parent="22">
                    <mxGeometry y="145" width="190" height="45" as="geometry"/>
                </mxCell>
                <mxCell id="18" value="Sexo_Ap" style="group;fillColor=#647687;fontColor=#ffffff;strokeColor=#314354;container=0;fontStyle=1;fontSize=20;" vertex="1" connectable="0" parent="22">
                    <mxGeometry y="190" width="190" height="45" as="geometry"/>
                </mxCell>
                <mxCell id="19" value="Dir_Ap" style="group;fillColor=#647687;fontColor=#ffffff;strokeColor=#314354;container=0;fontStyle=1;fontSize=20;" vertex="1" connectable="0" parent="22">
                    <mxGeometry y="235" width="190" height="45" as="geometry"/>
                </mxCell>
                <mxCell id="20" value="Cod_Prog1" style="group;fillColor=#647687;fontColor=#ffffff;strokeColor=#314354;container=0;fontStyle=5;fontSize=20;" vertex="1" connectable="0" parent="22">
                    <mxGeometry y="325" width="190" height="45" as="geometry"/>
                </mxCell>
                <mxCell id="21" value="Cel_Ap" style="group;fillColor=#647687;fontColor=#ffffff;strokeColor=#314354;container=0;fontStyle=1;fontSize=20;" vertex="1" connectable="0" parent="22">
                    <mxGeometry y="280" width="190" height="45" as="geometry"/>
                </mxCell>
                <mxCell id="28" value="" style="group" vertex="1" connectable="0" parent="1">
                    <mxGeometry x="990" y="220" width="190" height="190" as="geometry"/>
                </mxCell>
                <mxCell id="23" value="" style="group" vertex="1" connectable="0" parent="28">
                    <mxGeometry width="190" height="145" as="geometry"/>
                </mxCell>
                <mxCell id="24" value="Cod_Prog" style="group;fillColor=#647687;fontColor=#ffffff;strokeColor=#314354;container=0;fontStyle=5;fontSize=20;" vertex="1" connectable="0" parent="23">
                    <mxGeometry y="56" width="190" height="45" as="geometry"/>
                </mxCell>
                <mxCell id="25" value="&lt;h1&gt;&lt;font style=&quot;font-size: 25px;&quot;&gt;Programas&lt;/font&gt;&lt;/h1&gt;" style="rounded=0;whiteSpace=wrap;html=1;container=0;fillColor=#BDB9B9;strokeColor=#666666;fontColor=#333333;" vertex="1" parent="23">
                    <mxGeometry width="190" height="55" as="geometry"/>
                </mxCell>
                <mxCell id="26" value="Nom_Prog" style="group;fillColor=#647687;fontColor=#ffffff;strokeColor=#314354;container=0;fontStyle=1;fontSize=20;" vertex="1" connectable="0" parent="23">
                    <mxGeometry y="100" width="190" height="45" as="geometry"/>
                </mxCell>
                <mxCell id="27" value="Dur_Prog" style="group;fillColor=#647687;fontColor=#ffffff;strokeColor=#314354;container=0;fontStyle=1;fontSize=20;" vertex="1" connectable="0" parent="28">
                    <mxGeometry y="145" width="190" height="45" as="geometry"/>
                </mxCell>
                <mxCell id="34" value="" style="group" vertex="1" connectable="0" parent="1">
                    <mxGeometry x="110" y="710" width="190" height="145" as="geometry"/>
                </mxCell>
                <mxCell id="35" value="Doc_Ap1" style="group;fillColor=#647687;fontColor=#ffffff;strokeColor=#314354;container=0;fontStyle=5;fontSize=20;" vertex="1" connectable="0" parent="34">
                    <mxGeometry y="56" width="190" height="45" as="geometry"/>
                </mxCell>
                <mxCell id="36" value="&lt;h1&gt;&lt;font style=&quot;font-size: 25px;&quot;&gt;Ins_Apr&lt;/font&gt;&lt;/h1&gt;" style="rounded=0;whiteSpace=wrap;html=1;container=0;fillColor=#BDB9B9;strokeColor=#666666;fontColor=#333333;" vertex="1" parent="34">
                    <mxGeometry width="190" height="55" as="geometry"/>
                </mxCell>
                <mxCell id="37" value="Doc_I1" style="group;fillColor=#647687;fontColor=#ffffff;strokeColor=#314354;container=0;fontStyle=5;fontSize=20;" vertex="1" connectable="0" parent="34">
                    <mxGeometry y="100" width="190" height="45" as="geometry"/>
                </mxCell>
                <mxCell id="38" value="" style="group" vertex="1" connectable="0" parent="1">
                    <mxGeometry x="700" y="560" width="190" height="370" as="geometry"/>
                </mxCell>
                <mxCell id="39" value="" style="group" vertex="1" connectable="0" parent="38">
                    <mxGeometry width="190" height="145" as="geometry"/>
                </mxCell>
                <mxCell id="40" value="Doc_I" style="group;fillColor=#647687;fontColor=#ffffff;strokeColor=#314354;container=0;fontStyle=5;fontSize=20;" vertex="1" connectable="0" parent="39">
                    <mxGeometry y="56" width="190" height="45" as="geometry"/>
                </mxCell>
                <mxCell id="41" value="&lt;h1&gt;&lt;font style=&quot;font-size: 25px;&quot;&gt;Instructores&lt;/font&gt;&lt;/h1&gt;" style="rounded=0;whiteSpace=wrap;html=1;container=0;fillColor=#BDB9B9;strokeColor=#666666;fontColor=#333333;" vertex="1" parent="39">
                    <mxGeometry width="190" height="55" as="geometry"/>
                </mxCell>
                <mxCell id="42" value="Nom_I" style="group;fillColor=#647687;fontColor=#ffffff;strokeColor=#314354;container=0;fontStyle=1;fontSize=20;" vertex="1" connectable="0" parent="39">
                    <mxGeometry y="100" width="190" height="45" as="geometry"/>
                </mxCell>
                <mxCell id="43" value="Dir_I" style="group;fillColor=#647687;fontColor=#ffffff;strokeColor=#314354;container=0;fontStyle=1;fontSize=20;" vertex="1" connectable="0" parent="38">
                    <mxGeometry y="145" width="190" height="45" as="geometry"/>
                </mxCell>
                <mxCell id="44" value="Cel_I" style="group;fillColor=#647687;fontColor=#ffffff;strokeColor=#314354;container=0;fontStyle=1;fontSize=20;" vertex="1" connectable="0" parent="38">
                    <mxGeometry y="190" width="190" height="45" as="geometry"/>
                </mxCell>
                <mxCell id="45" value="Jor_I" style="group;fillColor=#647687;fontColor=#ffffff;strokeColor=#314354;container=0;fontStyle=1;fontSize=20;" vertex="1" connectable="0" parent="38">
                    <mxGeometry y="235" width="190" height="45" as="geometry"/>
                </mxCell>
                <mxCell id="49" value="" style="endArrow=none;html=1;fontSize=25;strokeWidth=4;strokeColor=#0066CC;" edge="1" parent="1">
                    <mxGeometry width="50" height="50" relative="1" as="geometry">
                        <mxPoint x="100" y="480" as="sourcePoint"/>
                        <mxPoint x="100" y="200" as="targetPoint"/>
                        <Array as="points">
                            <mxPoint x="20" y="480"/>
                            <mxPoint x="20" y="200"/>
                        </Array>
                    </mxGeometry>
                </mxCell>
                <mxCell id="50" value="" style="endArrow=none;html=1;fontSize=25;strokeWidth=4;strokeColor=#0066CC;" edge="1" parent="1">
                    <mxGeometry width="50" height="50" relative="1" as="geometry">
                        <mxPoint x="290" y="530" as="sourcePoint"/>
                        <mxPoint x="570" y="190" as="targetPoint"/>
                        <Array as="points">
                            <mxPoint x="340" y="530"/>
                            <mxPoint x="340" y="360"/>
                            <mxPoint x="490" y="360"/>
                            <mxPoint x="490" y="190"/>
                        </Array>
                    </mxGeometry>
                </mxCell>
                <mxCell id="51" value="" style="endArrow=none;html=1;fontSize=25;strokeWidth=4;strokeColor=#0066CC;" edge="1" parent="1">
                    <mxGeometry width="50" height="50" relative="1" as="geometry">
                        <mxPoint x="760" y="480" as="sourcePoint"/>
                        <mxPoint x="990" y="300" as="targetPoint"/>
                        <Array as="points">
                            <mxPoint x="830" y="480"/>
                            <mxPoint x="830" y="300"/>
                        </Array>
                    </mxGeometry>
                </mxCell>
                <mxCell id="52" value="" style="endArrow=none;html=1;fontSize=25;strokeWidth=4;strokeColor=#0066CC;" edge="1" parent="1">
                    <mxGeometry width="50" height="50" relative="1" as="geometry">
                        <mxPoint x="300" y="790" as="sourcePoint"/>
                        <mxPoint x="570" y="200" as="targetPoint"/>
                        <Array as="points">
                            <mxPoint x="370" y="790"/>
                            <mxPoint x="370" y="480"/>
                            <mxPoint x="520" y="480"/>
                            <mxPoint x="520" y="200"/>
                        </Array>
                    </mxGeometry>
                </mxCell>
                <mxCell id="53" value="" style="endArrow=none;html=1;fontSize=25;strokeWidth=4;strokeColor=#0066CC;" edge="1" parent="1">
                    <mxGeometry width="50" height="50" relative="1" as="geometry">
                        <mxPoint x="300" y="830" as="sourcePoint"/>
                        <mxPoint x="700" y="640" as="targetPoint"/>
                        <Array as="points">
                            <mxPoint x="520" y="830"/>
                            <mxPoint x="520" y="640"/>
                        </Array>
                    </mxGeometry>
                </mxCell>
                <mxCell id="54" value="&lt;h1&gt;&lt;font style=&quot;font-size: 30px;&quot;&gt;1&lt;/font&gt;&lt;/h1&gt;" style="text;html=1;align=center;verticalAlign=middle;resizable=0;points=[];autosize=1;strokeColor=none;fillColor=none;fontSize=25;" vertex="1" parent="1">
                    <mxGeometry x="50" y="100" width="40" height="140" as="geometry"/>
                </mxCell>
                <mxCell id="56" value="&lt;span style=&quot;color: rgb(226, 238, 255); font-family: &amp;quot;Google Sans&amp;quot;, arial, sans-serif; text-align: left;&quot;&gt;â&lt;/span&gt;" style="text;html=1;align=center;verticalAlign=middle;resizable=0;points=[];autosize=1;strokeColor=none;fillColor=none;fontSize=50;" vertex="1" parent="1">
                    <mxGeometry x="30" y="410" width="60" height="70" as="geometry"/>
                </mxCell>
                <mxCell id="57" value="&lt;span style=&quot;color: rgb(226, 238, 255); font-family: &amp;quot;Google Sans&amp;quot;, arial, sans-serif; text-align: left;&quot;&gt;â&lt;/span&gt;" style="text;html=1;align=center;verticalAlign=middle;resizable=0;points=[];autosize=1;strokeColor=none;fillColor=none;fontSize=50;" vertex="1" parent="1">
                    <mxGeometry x="280" y="460" width="60" height="70" as="geometry"/>
                </mxCell>
                <mxCell id="58" value="&lt;span style=&quot;color: rgb(226, 238, 255); font-family: &amp;quot;Google Sans&amp;quot;, arial, sans-serif; text-align: left;&quot;&gt;â&lt;/span&gt;" style="text;html=1;align=center;verticalAlign=middle;resizable=0;points=[];autosize=1;strokeColor=none;fillColor=none;fontSize=50;" vertex="1" parent="1">
                    <mxGeometry x="300" y="700" width="60" height="70" as="geometry"/>
                </mxCell>
                <mxCell id="59" value="&lt;span style=&quot;color: rgb(226, 238, 255); font-family: &amp;quot;Google Sans&amp;quot;, arial, sans-serif; text-align: left;&quot;&gt;â&lt;/span&gt;" style="text;html=1;align=center;verticalAlign=middle;resizable=0;points=[];autosize=1;strokeColor=none;fillColor=none;fontSize=50;" vertex="1" parent="1">
                    <mxGeometry x="300" y="770" width="60" height="70" as="geometry"/>
                </mxCell>
                <mxCell id="60" value="&lt;span style=&quot;color: rgb(226, 238, 255); font-family: &amp;quot;Google Sans&amp;quot;, arial, sans-serif; text-align: left;&quot;&gt;â&lt;/span&gt;" style="text;html=1;align=center;verticalAlign=middle;resizable=0;points=[];autosize=1;strokeColor=none;fillColor=none;fontSize=50;" vertex="1" parent="1">
                    <mxGeometry x="760" y="420" width="60" height="70" as="geometry"/>
                </mxCell>
                <mxCell id="61" value="&lt;h1&gt;&lt;font style=&quot;font-size: 30px;&quot;&gt;1&lt;/font&gt;&lt;/h1&gt;" style="text;html=1;align=center;verticalAlign=middle;resizable=0;points=[];autosize=1;strokeColor=none;fillColor=none;fontSize=25;" vertex="1" parent="1">
                    <mxGeometry x="530" y="90" width="40" height="140" as="geometry"/>
                </mxCell>
                <mxCell id="62" value="&lt;h1&gt;&lt;font style=&quot;font-size: 30px;&quot;&gt;1&lt;/font&gt;&lt;/h1&gt;" style="text;html=1;align=center;verticalAlign=middle;resizable=0;points=[];autosize=1;strokeColor=none;fillColor=none;fontSize=25;" vertex="1" parent="1">
                    <mxGeometry x="950" y="200" width="40" height="140" as="geometry"/>
                </mxCell>
                <mxCell id="63" value="&lt;h1&gt;&lt;font style=&quot;font-size: 30px;&quot;&gt;1&lt;/font&gt;&lt;/h1&gt;" style="text;html=1;align=center;verticalAlign=middle;resizable=0;points=[];autosize=1;strokeColor=none;fillColor=none;fontSize=25;" vertex="1" parent="1">
                    <mxGeometry x="660" y="545" width="40" height="140" as="geometry"/>
                </mxCell>
            </root>
        </mxGraphModel>
    </diagram>
</mxfile>